<?xml version="1.0" encoding="UTF-8"?>
<svg width="156px" height="156px" viewBox="0 0 156 156" version="1.1" xmlns="http://www.w3.org/2000/svg" xmlns:xlink="http://www.w3.org/1999/xlink">
    <title>GameplayEffect</title>
    <g id="gameplay-attributes-icons" stroke="none" stroke-width="1" fill="none" fill-rule="evenodd">
        <g id="GameplayEffect">
            <g fill="#CA93E3" fill-opacity="0.9" id="Rectangle" stroke="#670194" stroke-width="8">
                <rect x="4" y="4" width="148" height="148" rx="8"></rect>
            </g>
            <path d="M76.1386355,110.978577 L47.5556325,126.005551 C45.6002541,127.033554 43.1817455,126.281768 42.1537423,124.32639 C41.744386,123.547748 41.6031273,122.655876 41.7518347,121.788845 L47.2107025,89.9612037 C47.4332542,88.6636274 47.0030603,87.3396266 46.060316,86.420678 L22.9361808,63.880217 C21.3542464,62.3382122 21.3218772,59.8057591 22.8638821,58.2238248 C23.4779165,57.5938903 24.2824861,57.1839416 25.1530343,57.0574435 L57.1098031,52.4138532 C58.4126438,52.2245393 59.5389061,51.4062619 60.1215542,50.225688 L74.4130557,21.267943 C75.3907449,19.2869284 77.7892482,18.4735724 79.7702628,19.4512615 C80.5591133,19.8405825 81.1976233,20.4790926 81.5869443,21.267943 L95.8784458,50.225688 C96.4610939,51.4062619 97.5873562,52.2245393 98.8901969,52.4138532 L130.846966,57.0574435 C133.033145,57.375114 134.547871,59.4048854 134.230201,61.5910648 C134.103702,62.461613 133.693754,63.2661826 133.063819,63.880217 L109.939684,86.420678 C108.99694,87.3396266 108.566746,88.6636274 108.789298,89.9612037 L114.248165,121.788845 C114.621609,123.966191 113.159258,126.034015 110.981912,126.407459 C110.114882,126.556166 109.223009,126.414907 108.444368,126.005551 L79.8613645,110.978577 C78.6960684,110.365945 77.3039316,110.365945 76.1386355,110.978577 Z" id="Star" fill="#670194"></path>
        </g>
    </g>
</svg>