<?xml version="1.0" encoding="UTF-8"?>
<svg width="156px" height="156px" viewBox="0 0 156 156" version="1.1" xmlns="http://www.w3.org/2000/svg" xmlns:xlink="http://www.w3.org/1999/xlink">
    <title>AbilityContainer</title>
    <g id="gameplay-attributes-icons" stroke="none" stroke-width="1" fill="none" fill-rule="evenodd">
        <g id="AbilityContainer">
            <g fill="#FF890C" id="Rectangle" stroke="#DB4A0F" stroke-width="8">
                <rect x="4" y="4" width="148" height="148" rx="8"></rect>
            </g>
            <g id="Ability" transform="translate(19.734724, 71.934534)" fill="#DB4A0F">
                <path d="M0.221903555,19.1897426 C0.0739678517,19.6563347 0,20.1155855 0,20.5674948 C0,21.0194042 0.0739678517,21.8054132 0.221903555,22.9255219 L4.85394773,49.2592354 C5.57651598,51.9875275 6.41893584,53.8495426 7.38120732,54.8452805 C8.28274063,55.7781678 9.82584413,57.2295049 11.4389516,57.8299189 C15.8588102,59.4750326 23.6459259,62.5695734 31.1623293,55.9144044 C38.6787326,49.2592354 38.3624776,44.3445539 40.724114,42.5402301 C43.0857503,40.7359063 47.0460658,35.6909151 51.5206289,35.6909151 C55.9951921,35.6909151 51.6661077,29.3984732 47.8749309,29.3984732 C44.083754,29.3984732 38.7610305,34.0812982 37.099803,34.3728774 C35.4385754,34.6644565 33.1233831,35.2505993 33.1233831,29.3984732 C33.1233831,25.4970557 32.774155,17.8953048 32.0756986,6.5932205 C31.5832708,5.46735208 30.9480921,4.84244974 30.1701625,4.71851348 C28.6721416,4.47985551 27.4246961,4.60122463 26.8225069,6.5932205 C25.9904057,9.34574748 25.8144441,15.7660802 25.7574726,25.0151859 C25.7546811,25.4683872 25.6630625,26.0258981 25.482617,26.6877187 C25.202645,27.8553922 24.8301196,25.7673607 24.3650409,20.423624 C23.8999623,15.0798873 23.5189926,9.15130884 23.222132,2.63788851 C23.287413,0.879296171 22.4468575,0 20.7004657,0 C18.0808779,0 17.4912039,1.3043247 17.4912039,1.83994402 C17.4912039,2.37556333 17.7405642,11.5621138 17.7405642,27.9073441 C17.7405642,28.2932778 17.6574441,28.7903208 17.4912039,29.3984732 C17.042284,30.072201 16.5257409,28.2806691 15.9415748,24.0238776 C15.3574086,19.7670861 14.7786956,14.6653684 14.2054356,8.71872451 C13.6299114,7.30172184 12.6580758,6.5932205 11.2899287,6.5932205 C9.23770813,6.5932205 8.27851807,8.0538274 8.27851807,9.93147344 C8.27851807,11.1832375 8.79429342,19.5400646 9.82584413,35.0019549 C9.71798351,35.9502617 9.29522159,34.854944 8.55755835,31.716002 C7.81989511,28.5770599 7.00401382,24.4016402 6.10991448,19.1897426 C5.53544738,17.7259029 4.58239976,16.993983 3.25077164,16.993983 C1.91914351,16.993983 0.909520815,17.7259029 0.221903555,19.1897426 Z"></path>
            </g>
            <g id="Ability001" transform="translate(85.734724, 71.934534)" fill="#DB4A0F">
                <path d="M0.221903555,19.1897426 C0.0739678517,19.6563347 0,20.1155855 0,20.5674948 C0,21.0194042 0.0739678517,21.8054132 0.221903555,22.9255219 L4.85394773,49.2592354 C5.57651598,51.9875275 6.41893584,53.8495426 7.38120732,54.8452805 C8.28274063,55.7781678 9.82584413,57.2295049 11.4389516,57.8299189 C15.8588102,59.4750326 23.6459259,62.5695734 31.1623293,55.9144044 C38.6787326,49.2592354 38.3624776,44.3445539 40.724114,42.5402301 C43.0857503,40.7359063 47.0460658,35.6909151 51.5206289,35.6909151 C55.9951921,35.6909151 51.6661077,29.3984732 47.8749309,29.3984732 C44.083754,29.3984732 38.7610305,34.0812982 37.099803,34.3728774 C35.4385754,34.6644565 33.1233831,35.2505993 33.1233831,29.3984732 C33.1233831,25.4970557 32.774155,17.8953048 32.0756986,6.5932205 C31.5832708,5.46735208 30.9480921,4.84244974 30.1701625,4.71851348 C28.6721416,4.47985551 27.4246961,4.60122463 26.8225069,6.5932205 C25.9904057,9.34574748 25.8144441,15.7660802 25.7574726,25.0151859 C25.7546811,25.4683872 25.6630625,26.0258981 25.482617,26.6877187 C25.202645,27.8553922 24.8301196,25.7673607 24.3650409,20.423624 C23.8999623,15.0798873 23.5189926,9.15130884 23.222132,2.63788851 C23.287413,0.879296171 22.4468575,0 20.7004657,0 C18.0808779,0 17.4912039,1.3043247 17.4912039,1.83994402 C17.4912039,2.37556333 17.7405642,11.5621138 17.7405642,27.9073441 C17.7405642,28.2932778 17.6574441,28.7903208 17.4912039,29.3984732 C17.042284,30.072201 16.5257409,28.2806691 15.9415748,24.0238776 C15.3574086,19.7670861 14.7786956,14.6653684 14.2054356,8.71872451 C13.6299114,7.30172184 12.6580758,6.5932205 11.2899287,6.5932205 C9.23770813,6.5932205 8.27851807,8.0538274 8.27851807,9.93147344 C8.27851807,11.1832375 8.79429342,19.5400646 9.82584413,35.0019549 C9.71798351,35.9502617 9.29522159,34.854944 8.55755835,31.716002 C7.81989511,28.5770599 7.00401382,24.4016402 6.10991448,19.1897426 C5.53544738,17.7259029 4.58239976,16.993983 3.25077164,16.993983 C1.91914351,16.993983 0.909520815,17.7259029 0.221903555,19.1897426 Z" id="Ability"></path>
            </g>
            <g id="Ability002" transform="translate(51.734724, 17.934534)" fill="#DB4A0F">
                <path d="M0.221903555,19.1897426 C0.0739678517,19.6563347 0,20.1155855 0,20.5674948 C0,21.0194042 0.0739678517,21.8054132 0.221903555,22.9255219 L4.85394773,49.2592354 C5.57651598,51.9875275 6.41893584,53.8495426 7.38120732,54.8452805 C8.28274063,55.7781678 9.82584413,57.2295049 11.4389516,57.8299189 C15.8588102,59.4750326 23.6459259,62.5695734 31.1623293,55.9144044 C38.6787326,49.2592354 38.3624776,44.3445539 40.724114,42.5402301 C43.0857503,40.7359063 47.0460658,35.6909151 51.5206289,35.6909151 C55.9951921,35.6909151 51.6661077,29.3984732 47.8749309,29.3984732 C44.083754,29.3984732 38.7610305,34.0812982 37.099803,34.3728774 C35.4385754,34.6644565 33.1233831,35.2505993 33.1233831,29.3984732 C33.1233831,25.4970557 32.774155,17.8953048 32.0756986,6.5932205 C31.5832708,5.46735208 30.9480921,4.84244974 30.1701625,4.71851348 C28.6721416,4.47985551 27.4246961,4.60122463 26.8225069,6.5932205 C25.9904057,9.34574748 25.8144441,15.7660802 25.7574726,25.0151859 C25.7546811,25.4683872 25.6630625,26.0258981 25.482617,26.6877187 C25.202645,27.8553922 24.8301196,25.7673607 24.3650409,20.423624 C23.8999623,15.0798873 23.5189926,9.15130884 23.222132,2.63788851 C23.287413,0.879296171 22.4468575,0 20.7004657,0 C18.0808779,0 17.4912039,1.3043247 17.4912039,1.83994402 C17.4912039,2.37556333 17.7405642,11.5621138 17.7405642,27.9073441 C17.7405642,28.2932778 17.6574441,28.7903208 17.4912039,29.3984732 C17.042284,30.072201 16.5257409,28.2806691 15.9415748,24.0238776 C15.3574086,19.7670861 14.7786956,14.6653684 14.2054356,8.71872451 C13.6299114,7.30172184 12.6580758,6.5932205 11.2899287,6.5932205 C9.23770813,6.5932205 8.27851807,8.0538274 8.27851807,9.93147344 C8.27851807,11.1832375 8.79429342,19.5400646 9.82584413,35.0019549 C9.71798351,35.9502617 9.29522159,34.854944 8.55755835,31.716002 C7.81989511,28.5770599 7.00401382,24.4016402 6.10991448,19.1897426 C5.53544738,17.7259029 4.58239976,16.993983 3.25077164,16.993983 C1.91914351,16.993983 0.909520815,17.7259029 0.221903555,19.1897426 Z" id="Ability"></path>
            </g>
        </g>
    </g>
</svg>