<?xml version="1.0" encoding="UTF-8"?>
<svg width="156px" height="156px" viewBox="0 0 156 156" version="1.1" xmlns="http://www.w3.org/2000/svg" xmlns:xlink="http://www.w3.org/1999/xlink">
    <title>Ability</title>
    <g id="gameplay-attributes-icons" stroke="none" stroke-width="1" fill="none" fill-rule="evenodd">
        <g id="Ability">
            <g fill="#93E39F" fill-opacity="0.9" id="Rectangle" stroke="#019471" stroke-width="8">
                <rect x="4" y="4" width="148" height="148" rx="8"></rect>
            </g>
            <g transform="translate(30.000000, 25.000000)" fill="#019471">
                <path d="M0.396185396,34.2612617 C0.132061799,35.0943127 0,35.9142564 0,36.721093 C0,37.5279295 0.132061799,38.9312657 0.396185396,40.9311017 L8.66621177,87.9471699 C9.95628118,92.8182478 11.460333,96.1426793 13.1783672,97.9204643 C14.7879599,99.5860363 17.5430084,102.177246 20.4230416,103.249221 C28.3142331,106.186398 42.217307,111.711375 55.6370525,99.8292723 C69.056798,87.9471699 68.492158,79.1725245 72.7086107,75.9510946 C76.9250634,72.7296647 83.9957889,63.7223649 91.9846496,63.7223649 C99.9735102,63.7223649 92.2443866,52.4878734 85.4756401,52.4878734 C78.7068937,52.4878734 69.2037322,60.8485637 66.2377856,61.3691476 C63.2718391,61.8897314 59.1383074,62.9362275 59.1383074,52.4878734 C59.1383074,45.5223041 58.5147973,31.9501795 57.2677771,11.7714999 C56.3885992,9.76138055 55.2545547,8.64568332 53.8656434,8.42440821 C51.191085,7.99830957 48.9639026,8.21500133 47.8887573,11.7714999 C46.4031285,16.6858465 46.0889675,28.1486734 45.987251,44.6619762 C45.9822669,45.4711194 45.8186917,46.4664964 45.4965253,47.6481072 C44.9966647,49.7328651 44.33156,46.004905 43.501211,36.4642268 C42.6708621,26.9235485 41.990681,16.3386968 41.4606677,4.70967174 C41.57722,1.56989058 40.0764969,0 36.9584984,0 C32.2815006,0 31.2287,2.32873421 31.2287,3.285026 C31.2287,4.2413178 31.6739064,20.6429348 31.6739064,49.8256198 C31.6739064,50.5146636 31.5255043,51.4020815 31.2287,52.4878734 C30.4272007,53.6907435 29.5049676,50.4921523 28.4620005,42.8920999 C27.4190335,35.2920475 26.3858024,26.1834686 25.3623072,15.5663631 C24.3347694,13.0364543 22.5996593,11.7714999 20.1569771,11.7714999 C16.4929536,11.7714999 14.780421,14.3792595 14.780421,17.7315985 C14.780421,19.9664911 15.7012835,34.8867247 17.5430084,62.4922992 C17.3504347,64.1854009 16.5956379,62.2298267 15.2786179,56.6255767 C13.961598,51.0213268 12.504928,43.5665551 10.9086079,34.2612617 C9.88295752,31.6477302 8.18139151,30.3409645 5.80390993,30.3409645 C3.42642834,30.3409645 1.6238535,31.6477302 0.396185396,34.2612617 Z"></path>
            </g>
        </g>
    </g>
</svg>